<?xml version="1.0" encoding="UTF-8"?>
<mxfile host="app.diagrams.net" modified="2024-01-15T10:00:00.000Z" agent="5.0" etag="sharpee-if-services" version="20.0.0" type="device">
  <diagram name="Sharpee Architecture" id="sharpee-arch">
    <mxGraphModel dx="2000" dy="1200" grid="1" gridSize="10" guides="1" tooltips="1" connect="1" arrows="1" fold="1" page="1" pageScale="1" pageWidth="1600" pageHeight="1200" math="0" shadow="0">
      <root>
        <mxCell id="0" />
        <mxCell id="1" parent="0" />
        
        <!-- Title -->
        <mxCell id="title" value="Sharpee Interactive Fiction Platform Architecture" style="text;html=1;strokeColor=none;fillColor=none;align=center;verticalAlign=middle;whiteSpace=wrap;rounded=0;fontSize=24;fontStyle=1" vertex="1" parent="1">
          <mxGeometry x="400" y="40" width="800" height="40" as="geometry" />
        </mxCell>
        
        <!-- Core Layer -->
        <mxCell id="core-layer" value="Core Foundation" style="swimlane;fillColor=#dae8fc;strokeColor=#6c8ebf;fontSize=14;fontStyle=1;startSize=30;" vertex="1" parent="1">
          <mxGeometry x="200" y="900" width="1200" height="120" as="geometry" />
        </mxCell>
        
        <mxCell id="core" value="@sharpee/core" style="rounded=1;whiteSpace=wrap;html=1;fillColor=#e1d5e7;strokeColor=#9673a6;fontSize=12;" vertex="1" parent="core-layer">
          <mxGeometry x="20" y="40" width="160" height="60" as="geometry" />
        </mxCell>
        
        <mxCell id="core-desc" value="Event System&#xa;Rules Engine&#xa;Type System" style="text;html=1;strokeColor=none;fillColor=none;align=left;verticalAlign=middle;whiteSpace=wrap;rounded=0;fontSize=10;fontStyle=2" vertex="1" parent="core-layer">
          <mxGeometry x="200" y="40" width="150" height="60" as="geometry" />
        </mxCell>
        
        <!-- Domain Layer -->
        <mxCell id="domain-layer" value="Domain Model" style="swimlane;fillColor=#d5e8d4;strokeColor=#82b366;fontSize=14;fontStyle=1;startSize=30;" vertex="1" parent="1">
          <mxGeometry x="200" y="740" width="1200" height="120" as="geometry" />
        </mxCell>
        
        <mxCell id="if-domain" value="@sharpee/if-domain" style="rounded=1;whiteSpace=wrap;html=1;fillColor=#d5e8d4;strokeColor=#82b366;fontSize=12;" vertex="1" parent="domain-layer">
          <mxGeometry x="20" y="40" width="160" height="60" as="geometry" />
        </mxCell>
        
        <mxCell id="if-domain-desc" value="Pure Domain Types&#xa;Events &amp; Contracts&#xa;Language Provider Interface" style="text;html=1;strokeColor=none;fillColor=none;align=left;verticalAlign=middle;whiteSpace=wrap;rounded=0;fontSize=10;fontStyle=2" vertex="1" parent="domain-layer">
          <mxGeometry x="200" y="40" width="180" height="60" as="geometry" />
        </mxCell>
        
        <mxCell id="if-services" value="@sharpee/if-services" style="rounded=1;whiteSpace=wrap;html=1;fillColor=#fff2cc;strokeColor=#d6b656;fontSize=12;fontStyle=1" vertex="1" parent="domain-layer">
          <mxGeometry x="420" y="40" width="160" height="60" as="geometry" />
        </mxCell>
        
        <mxCell id="if-services-desc" value="Runtime Service Interfaces&#xa;TextService&#xa;(Future: Audio, Graphics)" style="text;html=1;strokeColor=none;fillColor=none;align=left;verticalAlign=middle;whiteSpace=wrap;rounded=0;fontSize=10;fontStyle=2" vertex="1" parent="domain-layer">
          <mxGeometry x="600" y="40" width="180" height="60" as="geometry" />
        </mxCell>
        
        <!-- World Model Layer -->
        <mxCell id="world-layer" value="World &amp; Language System" style="swimlane;fillColor=#f8cecc;strokeColor=#b85450;fontSize=14;fontStyle=1;startSize=30;" vertex="1" parent="1">
          <mxGeometry x="200" y="580" width="1200" height="120" as="geometry" />
        </mxCell>
        
        <mxCell id="world-model" value="@sharpee/world-model" style="rounded=1;whiteSpace=wrap;html=1;fillColor=#f8cecc;strokeColor=#b85450;fontSize=12;" vertex="1" parent="world-layer">
          <mxGeometry x="20" y="40" width="160" height="60" as="geometry" />
        </mxCell>
        
        <mxCell id="world-model-desc" value="Entity System&#xa;Traits &amp; Capabilities&#xa;Spatial Relationships" style="text;html=1;strokeColor=none;fillColor=none;align=left;verticalAlign=middle;whiteSpace=wrap;rounded=0;fontSize=10;fontStyle=2" vertex="1" parent="world-layer">
          <mxGeometry x="200" y="40" width="150" height="60" as="geometry" />
        </mxCell>
        
        <mxCell id="lang-en-us" value="@sharpee/lang-en-us" style="rounded=1;whiteSpace=wrap;html=1;fillColor=#f8cecc;strokeColor=#b85450;fontSize=12;" vertex="1" parent="world-layer">
          <mxGeometry x="420" y="40" width="160" height="60" as="geometry" />
        </mxCell>
        
        <mxCell id="parser-en-us" value="@sharpee/parser-en-us" style="rounded=1;whiteSpace=wrap;html=1;fillColor=#f8cecc;strokeColor=#b85450;fontSize=12;" vertex="1" parent="world-layer">
          <mxGeometry x="620" y="40" width="160" height="60" as="geometry" />
        </mxCell>
        
        <!-- Processing Layer -->
        <mxCell id="processing-layer" value="Processing &amp; Standard Library" style="swimlane;fillColor=#e6d0de;strokeColor=#996185;fontSize=14;fontStyle=1;startSize=30;" vertex="1" parent="1">
          <mxGeometry x="200" y="420" width="1200" height="120" as="geometry" />
        </mxCell>
        
        <mxCell id="event-processor" value="@sharpee/event-processor" style="rounded=1;whiteSpace=wrap;html=1;fillColor=#e6d0de;strokeColor=#996185;fontSize=12;" vertex="1" parent="processing-layer">
          <mxGeometry x="20" y="40" width="160" height="60" as="geometry" />
        </mxCell>
        
        <mxCell id="stdlib" value="@sharpee/stdlib" style="rounded=1;whiteSpace=wrap;html=1;fillColor=#e6d0de;strokeColor=#996185;fontSize=12;" vertex="1" parent="processing-layer">
          <mxGeometry x="220" y="40" width="160" height="60" as="geometry" />
        </mxCell>
        
        <mxCell id="text-service-template" value="@sharpee/text-service-template" style="rounded=1;whiteSpace=wrap;html=1;fillColor=#e6d0de;strokeColor=#996185;fontSize=12;" vertex="1" parent="processing-layer">
          <mxGeometry x="420" y="40" width="180" height="60" as="geometry" />
        </mxCell>
        
        <!-- Runtime Layer -->
        <mxCell id="runtime-layer" value="Runtime &amp; Authoring" style="swimlane;fillColor=#d4e1f5;strokeColor=#6c8ebf;fontSize=14;fontStyle=1;startSize=30;" vertex="1" parent="1">
          <mxGeometry x="200" y="260" width="1200" height="120" as="geometry" />
        </mxCell>
        
        <mxCell id="engine" value="@sharpee/engine" style="rounded=1;whiteSpace=wrap;html=1;fillColor=#d4e1f5;strokeColor=#6c8ebf;fontSize=12;" vertex="1" parent="runtime-layer">
          <mxGeometry x="20" y="40" width="160" height="60" as="geometry" />
        </mxCell>
        
        <mxCell id="forge" value="@sharpee/forge" style="rounded=1;whiteSpace=wrap;html=1;fillColor=#d4e1f5;strokeColor=#6c8ebf;fontSize=12;" vertex="1" parent="runtime-layer">
          <mxGeometry x="220" y="40" width="160" height="60" as="geometry" />
        </mxCell>
        
        <mxCell id="client-core" value="@sharpee/client-core" style="rounded=1;whiteSpace=wrap;html=1;fillColor=#d4e1f5;strokeColor=#6c8ebf;fontSize=12;" vertex="1" parent="runtime-layer">
          <mxGeometry x="420" y="40" width="160" height="60" as="geometry" />
        </mxCell>
        
        <!-- Application Layer -->
        <mxCell id="app-layer" value="Applications &amp; Extensions" style="swimlane;fillColor=#ffd4e5;strokeColor=#d74894;fontSize=14;fontStyle=1;startSize=30;" vertex="1" parent="1">
          <mxGeometry x="200" y="120" width="1200" height="100" as="geometry" />
        </mxCell>
        
        <mxCell id="client-react" value="@sharpee/client-react" style="rounded=1;whiteSpace=wrap;html=1;fillColor=#ffd4e5;strokeColor=#d74894;fontSize=12;" vertex="1" parent="app-layer">
          <mxGeometry x="20" y="30" width="160" height="50" as="geometry" />
        </mxCell>
        
        <mxCell id="client-electron" value="@sharpee/client-electron" style="rounded=1;whiteSpace=wrap;html=1;fillColor=#ffd4e5;strokeColor=#d74894;fontSize=12;" vertex="1" parent="app-layer">
          <mxGeometry x="220" y="30" width="160" height="50" as="geometry" />
        </mxCell>
        
        <mxCell id="extensions" value="Extensions&#xa;(conversation, etc.)" style="rounded=1;whiteSpace=wrap;html=1;fillColor=#ffd4e5;strokeColor=#d74894;fontSize=12;" vertex="1" parent="app-layer">
          <mxGeometry x="420" y="30" width="160" height="50" as="geometry" />
        </mxCell>
        
        <mxCell id="stories" value="Stories/Games" style="rounded=1;whiteSpace=wrap;html=1;fillColor=#ffd4e5;strokeColor=#d74894;fontSize=12;" vertex="1" parent="app-layer">
          <mxGeometry x="620" y="30" width="160" height="50" as="geometry" />
        </mxCell>
        
        <!-- Dependencies Arrows -->
        <!-- if-domain -> core -->
        <mxCell id="dep1" style="edgeStyle=orthogonalEdgeStyle;rounded=0;orthogonalLoop=1;jettySize=auto;html=1;entryX=0.5;entryY=0;exitX=0.5;exitY=1;strokeWidth=2;strokeColor=#666666;" edge="1" parent="1" source="if-domain" target="core">
          <mxGeometry relative="1" as="geometry" />
        </mxCell>
        
        <!-- if-services -> core, if-domain, world-model -->
        <mxCell id="dep2" style="edgeStyle=orthogonalEdgeStyle;rounded=0;orthogonalLoop=1;jettySize=auto;html=1;entryX=0.75;entryY=0;exitX=0.25;exitY=1;strokeWidth=2;strokeColor=#666666;" edge="1" parent="1" source="if-services" target="core">
          <mxGeometry relative="1" as="geometry" />
        </mxCell>
        
        <mxCell id="dep3" style="edgeStyle=orthogonalEdgeStyle;rounded=0;orthogonalLoop=1;jettySize=auto;html=1;entryX=1;entryY=0.5;exitX=0;exitY=0.5;strokeWidth=2;strokeColor=#666666;" edge="1" parent="1" source="if-services" target="if-domain">
          <mxGeometry relative="1" as="geometry" />
        </mxCell>
        
        <mxCell id="dep4" style="edgeStyle=orthogonalEdgeStyle;rounded=0;orthogonalLoop=1;jettySize=auto;html=1;entryX=0.5;entryY=1;exitX=0.5;exitY=0;strokeWidth=2;strokeColor=#666666;" edge="1" parent="1" source="if-services" target="world-model">
          <mxGeometry relative="1" as="geometry" />
        </mxCell>
        
        <!-- world-model -> core, if-domain -->
        <mxCell id="dep5" style="edgeStyle=orthogonalEdgeStyle;rounded=0;orthogonalLoop=1;jettySize=auto;html=1;strokeWidth=2;strokeColor=#666666;" edge="1" parent="1" source="world-model" target="if-domain">
          <mxGeometry relative="1" as="geometry" />
        </mxCell>
        
        <!-- text-service-template -> if-services -->
        <mxCell id="dep6" style="edgeStyle=orthogonalEdgeStyle;rounded=0;orthogonalLoop=1;jettySize=auto;html=1;strokeWidth=2;strokeColor=#666666;" edge="1" parent="1" source="text-service-template" target="if-services">
          <mxGeometry relative="1" as="geometry" />
        </mxCell>
        
        <!-- engine -> if-services -->
        <mxCell id="dep7" style="edgeStyle=orthogonalEdgeStyle;rounded=0;orthogonalLoop=1;jettySize=auto;html=1;strokeWidth=2;strokeColor=#666666;" edge="1" parent="1" source="engine" target="if-services">
          <mxGeometry relative="1" as="geometry">
            <Array as="points">
              <mxPoint x="280" y="240" />
              <mxPoint x="500" y="240" />
              <mxPoint x="500" y="740" />
            </Array>
          </mxGeometry>
        </mxCell>
        
        <!-- Legend -->
        <mxCell id="legend" value="Legend" style="swimlane;fillColor=#f5f5f5;strokeColor=#666666;fontSize=12;fontStyle=1;startSize=25;" vertex="1" parent="1">
          <mxGeometry x="1050" y="1050" width="350" height="100" as="geometry" />
        </mxCell>
        
        <mxCell id="legend-new" value="New Package" style="rounded=1;whiteSpace=wrap;html=1;fillColor=#fff2cc;strokeColor=#d6b656;fontSize=10;" vertex="1" parent="legend">
          <mxGeometry x="10" y="35" width="100" height="30" as="geometry" />
        </mxCell>
        
        <mxCell id="legend-pure" value="Pure Domain (no world-model dep)" style="rounded=1;whiteSpace=wrap;html=1;fillColor=#d5e8d4;strokeColor=#82b366;fontSize=10;" vertex="1" parent="legend">
          <mxGeometry x="120" y="35" width="220" height="30" as="geometry" />
        </mxCell>
        
        <!-- Notes -->
        <mxCell id="note1" value="Key Architectural Achievement:&#xa;• if-domain is now a pure domain package (only depends on core)&#xa;• Runtime services that need world-model are in if-services&#xa;• Clean separation of concerns maintained" style="text;html=1;strokeColor=none;fillColor=#ffe6cc;align=left;verticalAlign=top;whiteSpace=wrap;rounded=1;fontSize=11;fontStyle=0;spacing=5;spacingTop=5;spacingLeft=10;spacingRight=10;" vertex="1" parent="1">
          <mxGeometry x="840" y="780" width="360" height="80" as="geometry" />
        </mxCell>
        
      </root>
    </mxGraphModel>
  </diagram>
</mxfile>
